<svg xmlns="http://www.w3.org/2000/svg" width="24" height="24" fill="none"><path fill="#2c3e50" fill-rule="evenodd" d="M21.45 5.42c.2.29.16.68-.1.94l-9.18 9.2a.96.96 0 0 1-.34.19l-3.83 1a.75.75 0 0 1-.92-.92l1-3.83a.78.78 0 0 1 .16-.3l9.23-9.23a.75.75 0 0 1 1.06 0l2.83 2.83a.4.4 0 0 1 .1.12Zm-1.68.4L18 4.07l-8.52 8.52-.62 2.4 2.39-.63 8.52-8.52Z" clip-rule="evenodd"/><path fill="#2c3e50" d="M19.64 17.16c.27-2.34.36-4.7.26-7.04a.4.4 0 0 1 .12-.3l.98-.98a.2.2 0 0 1 .34.12c.19 2.8.12 5.6-.2 8.37a4.39 4.39 0 0 1-3.88 3.84c-3.47.38-7.05.38-10.52 0a4.39 4.39 0 0 1-3.87-3.84 45.92 45.92 0 0 1 0-10.66 4.39 4.39 0 0 1 3.87-3.84c2.63-.3 5.33-.36 8-.21a.2.2 0 0 1 .12.34l-1 1a.4.4 0 0 1-.3.1c-2.22-.07-4.46.02-6.65.26a2.89 2.89 0 0 0-2.55 2.52c-.4 3.43-.4 6.9 0 10.32a2.89 2.89 0 0 0 2.55 2.52c3.35.37 6.83.37 10.18 0a2.89 2.89 0 0 0 2.55-2.52Z"/></svg>
